inDegrees=no
num_controls=7
num_derivatives=13
num_iterations=103
num_multipliers=7
num_parameters=0
num_slacks=7
num_states=26
objective=4.437960
objective_accelerations=0.107642
objective_balance=0.035761
objective_effort=0.201538
objective_height=4.021184
objective_ligament=0.071835
solver_duration=1056.971073
status=Solve_Succeeded
success=true
DataType=double
version=3
OpenSimVersion=4.4-2022-07-23-0e9fedc
endheader
time	/jointset/ground_pelvis/pelvis_tilt/value	/jointset/ground_pelvis/pelvis_tx/value	/jointset/ground_pelvis/pelvis_ty/value	/jointset/hip_l/hip_flexion_l/value	/jointset/hip_l/hip_adduction_l/value	/jointset/hip_l/hip_rotation_l/value	/jointset/back/lumbar_extension/value	/jointset/patellofemoral_l/patellar_flexion_l/value	/jointset/knee_l/knee_flexion_l/value	/jointset/knee_l/knee_adduction_l/value	/jointset/knee_l/knee_rotation_l/value	/jointset/ankle_l/ankle_angle_l/value	/jointset/subtalar_l/subtalar_angle_l/value	/jointset/ground_pelvis/pelvis_tilt/speed	/jointset/ground_pelvis/pelvis_tx/speed	/jointset/ground_pelvis/pelvis_ty/speed	/jointset/hip_l/hip_flexion_l/speed	/jointset/hip_l/hip_adduction_l/speed	/jointset/hip_l/hip_rotation_l/speed	/jointset/back/lumbar_extension/speed	/jointset/patellofemoral_l/patellar_flexion_l/speed	/jointset/knee_l/knee_flexion_l/speed	/jointset/knee_l/knee_adduction_l/speed	/jointset/knee_l/knee_rotation_l/speed	/jointset/ankle_l/ankle_angle_l/speed	/jointset/subtalar_l/subtalar_angle_l/speed	/forceset/tau_hip_flexion_l	/forceset/tau_hip_adduction_l	/forceset/tau_hip_rotation_l	/forceset/tau_knee_flexion_l	/forceset/tau_ankle_angle_l	/forceset/tau_subtalar_angle_l	/forceset/tau_lumbar_extension	lambda_cid13_p0	lambda_cid13_p1	lambda_cid13_p2	lambda_cid13_p3	lambda_cid13_p4	lambda_cid13_p5	lambda_cid14_p0	/jointset/ground_pelvis/pelvis_tilt/accel	/jointset/ground_pelvis/pelvis_tx/accel	/jointset/ground_pelvis/pelvis_ty/accel	/jointset/hip_l/hip_flexion_l/accel	/jointset/hip_l/hip_adduction_l/accel	/jointset/hip_l/hip_rotation_l/accel	/jointset/back/lumbar_extension/accel	/jointset/patellofemoral_l/patellar_flexion_l/accel	/jointset/knee_l/knee_flexion_l/accel	/jointset/knee_l/knee_adduction_l/accel	/jointset/knee_l/knee_rotation_l/accel	/jointset/ankle_l/ankle_angle_l/accel	/jointset/subtalar_l/subtalar_angle_l/accel	gamma_cid13_p0	gamma_cid13_p1	gamma_cid13_p2	gamma_cid13_p3	gamma_cid13_p4	gamma_cid13_p5	gamma_cid14_p0
1	0.2165988893847501	0.0410346675647076	0.8947198799501603	0.2926766480804877	-0.3282565785146973	-0.1602388153105579	-0.9599306403472549	0.6746888059954176	0.6746888059944434	-0.1330054586614784	-0.1745055387620953	0.2158617356601168	0.04192866560886752	0.127043250167749	0.03726617943011217	0.03648755293317678	-0.2958912299909166	0.012889523242481	-0.06511756009402414	-0.004931386917199679	-0.1589169032737757	-0.1589169032737703	0.003930986815937527	7.592441955290597e-05	0.003199525731924202	0.01837898727930746	-0.1336459735719972	0.06175581215105944	-0.003921751143698325	-0.2223371148171722	-0.03157457284760237	0.02819004760333275	0.2869444688497443	-56.49854447629418	-5.260481226639393	3.708310592517011	9.855520316573312	-733.3502601973053	-68.20113742051375	-18.8243508760379	-0.5910372939428659	0.05530278089042817	0.2701977065902117	-0.6822810378673912	0.1547884184113714	-0.7098553999946788	1.632688812166094	-2.136698660661001	-2.136698660660347	-0.1022568297086821	0.005781453185510645	-1.000394919760907	-0.1986906812154392	-7.088274289650761e-09	2.729645973224419e-09	1.485288206643422e-08	5.855492916879347e-09	-2.123811406201437e-08	5.296855286674318e-09	-2.621839062817918e-09
1.01	0.2178393484033559	0.04141015233811177	0.8950981258577095	0.2896844974853122	-0.3281198149879697	-0.1609255570125747	-0.959897578868834	0.6729934809672318	0.6729934809671905	-0.1329707880265342	-0.1745045691107635	0.2158440419611487	0.04210280616600202	0.1210300509514464	0.03783689675975462	0.03915547737539005	-0.3025133544433972	0.01446304778888625	-0.0722256826406443	0.01159061218985922	-0.1801327773109853	-0.1801327773109769	0.002999411557040153	0.0001149714869911202	-0.006728950558082904	0.01645174947704321	-0.1330538966714966	0.06183016532262639	-0.003928261712348858	-0.2217996421942108	-0.03197838448191745	0.02813773059127127	0.2866982203186671	-56.61732807725591	-5.22998224143257	3.718320782004949	9.813721901851412	-733.229390116574	-68.18154940842447	-18.87881783456223	-0.6092368950077964	0.05887578076844809	0.2641623548674525	-0.6483486542080833	0.1586134689555135	-0.710529305853336	1.668994902921049	-2.111732373746525	-2.111732373746262	-0.0891673149615364	0.002514993138807449	-0.9876775109033443	-0.1893486551210964	-8.437412328782034e-09	2.544098830907749e-10	1.891743984473666e-08	6.721468027911112e-09	-2.386312896136507e-08	2.015815938357233e-09	-3.214095319920839e-09
1.02	0.2190191202979022	0.04179152819916753	0.8955028655180435	0.2866268915444365	-0.3279673204165368	-0.1616832276648748	-0.959697889511091	0.6710864570790228	0.6710864570797309	-0.1329455450323551	-0.1745032992568817	0.2157273427938181	0.04225775268003572	0.1149058253537722	0.03844439696043248	0.04178630349001412	-0.3089822991066367	0.01603573218340055	-0.07930335014159724	0.02839418901459093	-0.2012566752880333	-0.2012566752880279	0.002045458658867256	0.0001359649390653983	-0.01660156793941349	0.01454017865920384	-0.1324618197718942	0.06190451849396025	-0.003934772280621601	-0.2212621695717243	-0.03238219611641766	0.02808541357883965	0.2864519717870677	-56.74722380504076	-5.19810794692394	3.728763005618978	9.806381763990226	-733.2599251995714	-68.17139768077801	-18.93985420723656	-0.6132425702169859	0.06265935509728893	0.2627780410723503	-0.6516450800191121	0.1546203880332209	-0.7037643908612168	1.689004355700533	-2.118303448628577	-2.118303448629106	-0.1067323575636772	0.00217073011274627	-0.9892231380258044	-0.1955572843304905	-9.439469664287367e-09	-1.914338533008273e-09	2.262065412986737e-08	7.163669178346861e-09	-2.586169387814776e-08	-1.689065762491953e-09	-3.781330631143327e-09
1.03	0.2201370928314753	0.04217917166365074	0.8959337168707765	0.2835053686181622	-0.3277991068845536	-0.1625115000029403	-0.9593287773780446	0.6689686776425503	0.6689686776425011	-0.1329299750566187	-0.1745019031691797	0.2155122168975864	0.04239366659633149	0.108669368401396	0.03909131320466532	0.04437660948079016	-0.3152951249609409	0.01760689454915038	-0.08634353172981507	0.04547393682939842	-0.2222812052865629	-0.2222812052865517	0.001063499478138661	0.0001415964707988784	-0.02641207567436337	0.01264629813285837	-0.1317573154381877	0.06189210672062994	-0.00394543498041137	-0.2206973048577763	-0.03257173725629744	0.02803025879707907	0.2860601070122035	-56.79403720962458	-5.180484985380695	3.742547347437049	9.721298177141856	-733.0778276420017	-68.17748831678959	-19.00734811619495	-0.6317445189385641	0.06676187167074157	0.25604765881276	-0.6170279665732776	0.1583505156989359	-0.7030115964430889	1.724314878647008	-2.091825895000185	-2.091825894998602	-0.09468356071620497	-0.000483984362984654	-0.9752352540881649	-0.1857516980619535	-1.043798535995978e-08	-4.079959523862069e-09	2.632018123649632e-08	7.601546104694894e-09	-2.785386644816956e-08	-5.398272385305754e-09	-4.348310626591526e-09
1.04	0.2211921213432928	0.042573495113095	0.8963902494395591	0.2803215321074217	-0.3276151844579476	-0.1634099474676601	-0.9587874967899959	0.6666411932822531	0.666641193281165	-0.1329243758451197	-0.1745004994360451	0.2151993317914266	0.04251075205510878	0.1023170210013835	0.0397803939526429	0.04692254669983251	-0.3214450159527133	0.01917751110912516	-0.09333837546370732	0.06282788001511684	-0.2431976600665193	-0.2431976600665007	5.130580183325309e-05	0.0001374940398745994	-0.03615340992367366	0.01077448715549049	-0.1310528111060962	0.06187969494705736	-0.00395609767972979	-0.220132440144638	-0.03276127839643615	0.02797510401490629	0.2856682422363349	-56.85192388449334	-5.161500163886973	3.756773463774042	9.670016423430432	-733.0470144411405	-68.19324367766549	-19.08117596111665	-0.6364206597439991	0.07109225584601107	0.2539042867255922	-0.6190581075127483	0.154511226878244	-0.6946968199961014	1.743843429882433	-2.096688404913804	-2.096688404914004	-0.1127792566789299	0.0002239375811889462	-0.97538844089809	-0.1911433745350116	-1.143004518157424e-08	-6.238643746907999e-09	2.95580517155719e-08	8.129642170879921e-09	-3.022039582200104e-08	-8.789788810634664e-09	-4.705470329052941e-09
1.05	0.2221830570075887	0.04297494427917334	0.8968720193615436	0.2770769546228852	-0.327415545174663	-0.1643781342746668	-0.9580712275520331	0.6641050592821142	0.6641050592823345	-0.1329290336084816	-0.1744991791284045	0.2147894049066851	0.04260925856407732	0.09585160900560598	0.04051893117182045	0.04942405176238213	-0.3274489461753959	0.02075188865123162	-0.1002932854098429	0.08047995159543811	-0.2640139451330959	-0.2640139451330594	-0.0009857622072047202	0.0001259208777149563	-0.04581787734335924	0.008933722749527338	-0.1303737905815619	0.06186455414207866	-0.003963934182818285	-0.2194241687872166	-0.03288906578220338	0.02792266612009904	0.2852737455698573	-56.87991106277295	-5.151009922343349	3.77472924989562	9.556462049329008	-732.8882098356939	-68.2058938606946	-19.16119788771854	-0.6543772182743636	0.07665997812267904	0.2471591820208235	-0.5878311513407549	0.1591301571926476	-0.6950384605715914	1.783986624357925	-2.071818318815082	-2.071818318811919	-0.09960667346936149	-0.00193877345250419	-0.9598636976217475	-0.1795091008054086	-1.242190325712439e-08	-8.397111195959934e-09	3.278149542503644e-08	8.660557585184855e-09	-3.259862384595157e-08	-1.217137741729217e-08	-5.05607314735852e-09
1.06	0.2231087834021769	0.0433840639220792	0.8973785814473495	0.2737729837015923	-0.3272001162880915	-0.1654157002569162	-0.9571768180778312	0.6613612184790978	0.6613612184804021	-0.1329441492719728	-0.1744979927185391	0.2142832557867158	0.04268956420355095	0.08927516705863989	0.04131448931814814	0.05188097946404979	-0.33332370326583	0.02233543176607416	-0.1072142105019856	0.0984559272656667	-0.2847390206511154	-0.2847390206510625	-0.002040274234399216	0.0001107145020442644	-0.05539785696778066	0.00713431325641653	-0.1296947700583745	0.06184941333683679	-0.003971770685249214	-0.2187158974305086	-0.03301685316821847	0.02787022822485546	0.2848792489025688	-56.91897279421885	-5.139168158343653	3.793140522969781	9.475913927124209	-732.881312849635	-68.22848019661805	-19.24726804251159	-0.6586266499814939	0.08249644127582031	0.2449888145491748	-0.5932234810630258	0.156344341425486	-0.6878998491975431	1.808624247863698	-2.078446495202259	-2.078446495202747	-0.1162680603101304	-0.0005027051210470658	-0.9584908818454485	-0.182872391964586	-1.3411669461103e-08	-1.035208728256822e-08	3.607596184182262e-08	9.134936139634577e-09	-3.458577127839423e-08	-1.564171444018651e-08	-5.579210635777514e-09
1.07	0.2239682276319308	0.0438014219792215	0.8979094798425389	0.2704108914834749	-0.3269688074798898	-0.1665222885927279	-0.9561010947909037	0.6584106138935647	0.6584106138940574	-0.1329699085106403	-0.1744969740738777	0.2136817447075023	0.04275208792902763	0.08259865404914453	0.04216643658618308	0.05429026854408792	-0.3390748332174702	0.02392818673125977	-0.1140960423016993	0.1167366888212724	-0.305363616498019	-0.3053636164979649	-0.003114700250126186	9.331515522232758e-05	-0.06488859110997137	0.005378486549114977	-0.1289408295682715	0.06179014580216368	-0.003977897979935417	-0.2178864565551706	-0.03306835230514639	0.02781520429176474	0.2843454396875658	-56.91852691633166	-5.134651668564268	3.814468459573509	9.359712535933182	-732.6420705309703	-68.24979692051839	-19.33922336311087	-0.6744177182137842	0.08794296828191575	0.2376269619906239	-0.5630726807681747	0.1610165262860004	-0.6872191552015816	1.844995914197665	-2.051722906037075	-2.051722906036232	-0.1034995376128829	-0.002306167920114243	-0.9420010171545109	-0.1707320866593584	-1.440132439531717e-08	-1.229623936053588e-08	3.937420606218975e-08	9.606307414304766e-09	-3.655211655171412e-08	-1.911677212351897e-08	-6.111525500266372e-09
1.08	0.2247604559132393	0.04422757932878903	0.898464216729977	0.2669918849800218	-0.3267215160315791	-0.1676974741085562	-0.9548411251274708	0.6552543119942732	0.6552543119938025	-0.1330065059425211	-0.1744961189464311	0.2129857990195106	0.0427972945321231	0.07583197736844241	0.04307434780319556	0.05664867791374453	-0.3447065603112065	0.02553195978536952	-0.1209336464951716	0.1353052025682966	-0.3258784834090475	-0.3258784834089905	-0.004207912882236197	7.801107011041104e-05	-0.07428477872212502	0.003670888779945933	-0.1281868890789921	0.06173087826725595	-0.0039840252741039	-0.2170570156802992	-0.03311985144226353	0.02776018035830015	0.283811630472098	-56.92913662168502	-5.128791623805392	3.836258467774746	9.275589866606119	-732.5551268872197	-68.28136944897084	-19.43688692701559	-0.6766593842226538	0.09368923107112501	0.2348128724728504	-0.5693429094822212	0.1585479592103367	-0.679054327949261	1.866174686147197	-2.056500708027107	-2.056500708027243	-0.1200253835866403	-8.365277907492337e-05	-0.9395815758382108	-0.173226604338126	-1.520278507815993e-08	-1.392126945635623e-08	4.226673861334195e-08	9.987221207830272e-09	-3.84751223438126e-08	-2.221615528710809e-08	-6.439485276613766e-09
